<svg id="Capa_1" data-name="Capa 1" xmlns="http://www.w3.org/2000/svg" viewBox="0 0 268.76 268.76"><defs><style>.cls-1{fill:#9a9a9a;}</style></defs><title>gear-white</title><g id="Settings"><path class="cls-1" d="M267.92,119.46c-.42-3.78-4.83-6.62-8.64-6.62A29.67,29.67,0,0,1,239,61.2a7.46,7.46,0,0,0,.82-10.13,133,133,0,0,0-21.29-21.5,7.48,7.48,0,0,0-10.21.83c-8,8.87-22.4,12.17-33.52,7.53A29.85,29.85,0,0,1,156.62,8.74,7.46,7.46,0,0,0,150,.9,134.16,134.16,0,0,0,119.79.82a7.48,7.48,0,0,0-6.65,7.69,29.9,29.9,0,0,1-18.4,28.67c-11,4.49-25.27,1.22-33.27-7.57a7.49,7.49,0,0,0-10.14-.85A133.48,133.48,0,0,0,29.59,50.24a7.48,7.48,0,0,0,.8,10.21A29.78,29.78,0,0,1,37.9,94c-4.64,11-16.11,18.17-29.24,18.17a7.3,7.3,0,0,0-7.76,6.6,134.62,134.62,0,0,0-.06,30.56c.42,3.79,5,6.61,8.81,6.61a29.47,29.47,0,0,1,27.65,18.41,29.88,29.88,0,0,1-7.51,33.23A7.47,7.47,0,0,0,29,217.69,133.46,133.46,0,0,0,50.23,239.2a7.47,7.47,0,0,0,10.23-.81c8-8.89,22.43-12.18,33.5-7.54A29.8,29.8,0,0,1,112.14,260a7.46,7.46,0,0,0,6.6,7.85,133.75,133.75,0,0,0,30.23.08,7.48,7.48,0,0,0,6.65-7.7A29.87,29.87,0,0,1,174,231.6c11.06-4.52,25.29-1.21,33.28,7.57a7.51,7.51,0,0,0,10.14.85,133.79,133.79,0,0,0,21.74-21.49,7.46,7.46,0,0,0-.8-10.21,29.78,29.78,0,0,1-7.53-33.52,30.09,30.09,0,0,1,27.49-18.22l1.66,0a7.48,7.48,0,0,0,7.86-6.59A134.5,134.5,0,0,0,267.92,119.46Zm-133.33,60a44.82,44.82,0,1,1,44.82-44.82A44.87,44.87,0,0,1,134.6,179.49Z" transform="translate(0 0)"/></g></svg>