<svg id="svg" version="1.1" xmlns="http://www.w3.org/2000/svg" xmlns:xlink="http://www.w3.org/1999/xlink" width="400" height="593.939393939394" viewBox="0, 0, 400,593.939393939394"><g id="svgg"><path id="path0" d="M187.800 14.620 C 185.868 15.639,184.830 16.806,182.926 20.096 C 181.089 23.270,180.068 24.263,177.571 25.304 C 175.495 26.170,173.276 28.260,171.524 31.000 C 168.337 35.987,167.923 36.423,164.946 37.929 C 158.801 41.037,159.200 38.567,159.198 73.487 C 159.195 106.109,159.264 105.195,156.620 107.801 C 153.462 110.914,154.789 110.800,121.734 110.800 C 89.132 110.800,89.850 110.854,87.016 108.209 C 84.090 105.479,83.249 102.409,84.664 99.629 C 84.936 99.094,85.068 98.509,84.956 98.329 C 84.844 98.148,84.973 98.000,85.243 98.000 C 85.513 98.000,85.619 97.885,85.478 97.745 C 85.338 97.605,85.578 96.992,86.012 96.383 C 86.445 95.775,86.800 95.154,86.800 95.005 C 86.800 94.509,90.704 90.800,91.257 90.772 C 91.556 90.756,91.440 90.589,91.000 90.400 C 90.316 90.106,90.301 90.052,90.900 90.028 C 91.561 90.002,91.596 88.183,91.533 57.100 C 91.496 39.005,91.395 24.875,91.309 25.700 C 91.222 26.525,90.995 27.200,90.804 27.200 C 90.612 27.200,90.378 27.605,90.282 28.100 C 90.119 28.948,90.105 28.943,90.048 28.000 C 90.000 27.200,89.910 27.120,89.600 27.600 C 89.286 28.085,89.211 28.028,89.206 27.300 C 89.203 26.805,89.020 26.400,88.800 26.400 C 88.580 26.400,88.400 26.580,88.400 26.800 C 88.400 27.020,88.220 27.200,88.000 27.200 C 87.780 27.200,87.597 26.795,87.594 26.300 C 87.590 25.783,87.463 25.587,87.294 25.839 C 86.915 26.405,85.602 26.401,85.594 25.833 C 85.591 25.595,85.397 25.670,85.163 26.000 C 84.833 26.467,84.693 26.486,84.531 26.083 C 84.371 25.687,84.192 25.675,83.761 26.032 C 83.333 26.387,83.200 26.386,83.200 26.025 C 83.200 25.765,83.006 25.673,82.769 25.819 C 82.532 25.966,71.108 26.058,57.384 26.024 C 24.632 25.942,26.038 25.424,25.970 37.597 C 25.932 44.271,25.441 45.694,22.288 48.257 C 21.533 48.871,19.244 50.044,19.066 49.908 C 18.987 49.849,18.625 50.047,18.261 50.349 C 17.898 50.651,17.600 50.774,17.600 50.622 C 17.600 49.480,15.127 52.351,14.609 54.093 C 14.066 55.922,14.000 85.327,14.000 324.873 L 14.000 593.600 207.000 593.600 L 400.000 593.600 400.000 315.800 L 400.000 38.000 396.987 38.000 C 392.553 38.000,390.064 36.701,388.261 33.446 C 386.261 29.834,384.024 26.738,383.603 26.998 C 383.412 27.116,383.147 27.037,383.014 26.823 C 382.881 26.608,381.691 25.856,380.368 25.151 C 377.683 23.719,376.066 21.914,374.598 18.708 C 372.542 14.217,371.792 14.004,358.000 14.004 C 343.896 14.004,343.379 14.176,340.540 19.795 C 338.886 23.071,337.894 24.037,334.516 25.669 C 331.981 26.893,329.200 29.493,329.200 30.638 C 329.200 30.988,328.885 31.686,328.500 32.191 C 328.115 32.695,327.530 33.504,327.200 33.989 C 325.739 36.136,322.128 38.795,321.511 38.178 C 321.038 37.704,317.598 41.343,317.215 42.723 C 316.952 43.670,316.803 54.753,316.800 73.600 C 316.797 93.428,316.655 103.507,316.363 104.557 C 315.783 106.647,313.026 109.312,310.583 110.144 C 308.067 111.001,251.326 111.152,248.176 110.309 C 244.635 109.362,241.017 104.835,241.615 102.100 C 241.771 101.385,241.842 100.800,241.773 100.800 C 241.704 100.800,241.898 100.318,242.203 99.729 C 242.509 99.139,242.668 98.511,242.557 98.331 C 242.446 98.152,242.816 97.402,243.378 96.665 C 243.940 95.928,244.400 95.187,244.400 95.018 C 244.400 94.850,245.206 93.918,246.190 92.947 L 247.980 91.182 247.995 61.691 C 248.009 32.999,247.848 26.566,247.146 27.673 C 246.910 28.046,246.810 27.937,246.806 27.300 C 246.803 26.805,246.620 26.400,246.400 26.400 C 246.180 26.400,246.000 26.580,246.000 26.800 C 246.000 27.020,245.820 27.200,245.600 27.200 C 245.380 27.200,245.197 26.795,245.194 26.300 C 245.189 25.605,245.105 25.531,244.824 25.974 C 244.516 26.462,244.362 26.466,243.800 26.000 C 243.238 25.534,243.079 25.538,242.739 26.026 C 242.432 26.466,242.292 26.483,242.135 26.098 C 242.023 25.821,241.723 25.724,241.467 25.882 C 240.571 26.436,225.939 26.017,223.684 25.373 C 221.080 24.629,219.017 22.673,217.146 19.175 C 216.406 17.790,215.109 16.104,214.264 15.428 L 212.727 14.200 200.864 14.093 C 190.672 14.002,188.831 14.076,187.800 14.620 M92.191 57.200 C 92.191 75.350,92.240 82.775,92.300 73.700 C 92.360 64.625,92.360 49.775,92.300 40.700 C 92.240 31.625,92.191 39.050,92.191 57.200 M248.659 26.500 C 248.223 30.131,248.356 90.000,248.800 90.000 C 249.063 90.000,249.200 78.800,249.200 57.200 C 249.200 39.160,249.135 24.400,249.056 24.400 C 248.976 24.400,248.798 25.345,248.659 26.500 M249.791 57.200 C 249.791 75.350,249.840 82.775,249.900 73.700 C 249.960 64.625,249.960 49.775,249.900 40.700 C 249.840 31.625,249.791 39.050,249.791 57.200 " stroke="none" fill="#444444" fill-rule="evenodd"></path><path id="path1" d="M162.000 2.192 C 162.000 4.686,162.172 4.579,157.529 4.983 C 152.139 5.453,150.400 7.507,150.400 13.401 C 150.400 16.466,150.231 16.607,146.200 16.901 C 137.394 17.543,137.600 16.523,137.600 59.442 L 137.600 89.200 115.400 89.200 L 93.200 89.200 93.190 53.300 C 93.175 3.248,93.636 5.787,84.388 4.813 C 79.709 4.320,30.771 4.288,25.800 4.774 C 18.562 5.482,17.330 6.606,16.899 12.887 C 16.646 16.581,16.587 16.641,13.000 16.902 C 5.453 17.450,4.400 19.695,4.400 35.242 L 4.400 40.800 2.833 40.800 C 1.971 40.800,0.981 40.909,0.633 41.043 C 0.057 41.264,0.000 65.993,0.000 317.443 L 0.000 593.600 7.000 593.600 L 14.000 593.600 14.000 324.873 C 14.000 85.327,14.066 55.922,14.609 54.093 C 15.127 52.351,17.364 49.774,17.900 50.302 C 17.955 50.356,18.090 50.377,18.200 50.350 C 18.310 50.323,18.535 50.270,18.700 50.233 C 19.187 50.125,21.678 48.753,22.288 48.257 C 25.441 45.694,25.932 44.271,25.970 37.597 C 26.038 25.424,24.632 25.942,57.384 26.024 C 71.108 26.058,82.532 25.966,82.769 25.819 C 83.006 25.673,83.200 25.765,83.200 26.025 C 83.200 26.386,83.333 26.387,83.761 26.032 C 84.192 25.675,84.371 25.687,84.531 26.083 C 84.693 26.486,84.833 26.467,85.163 26.000 C 85.397 25.670,85.591 25.595,85.594 25.833 C 85.602 26.401,86.915 26.405,87.294 25.839 C 87.463 25.587,87.590 25.783,87.594 26.300 C 87.597 26.795,87.780 27.200,88.000 27.200 C 88.220 27.200,88.400 27.020,88.400 26.800 C 88.400 26.580,88.580 26.400,88.800 26.400 C 89.020 26.400,89.203 26.805,89.206 27.300 C 89.211 27.984,89.298 28.065,89.570 27.635 C 89.846 27.198,89.968 27.289,90.109 28.035 C 90.284 28.963,90.293 28.966,90.346 28.100 C 90.375 27.605,90.569 27.200,90.776 27.200 C 90.983 27.200,91.222 26.525,91.309 25.700 C 91.395 24.875,91.496 39.005,91.533 57.100 C 91.596 88.183,91.561 90.002,90.900 90.028 C 90.301 90.052,90.316 90.106,91.000 90.400 C 91.440 90.589,91.556 90.756,91.257 90.772 C 90.704 90.800,86.800 94.509,86.800 95.005 C 86.800 95.154,86.445 95.775,86.012 96.383 C 85.578 96.992,85.338 97.605,85.478 97.745 C 85.619 97.885,85.513 98.000,85.243 98.000 C 84.973 98.000,84.844 98.148,84.956 98.329 C 85.068 98.509,84.936 99.094,84.664 99.629 C 83.249 102.409,84.090 105.479,87.016 108.209 C 89.850 110.854,89.132 110.800,121.734 110.800 C 154.789 110.800,153.462 110.914,156.620 107.801 C 159.264 105.195,159.195 106.109,159.198 73.487 C 159.200 38.567,158.801 41.037,164.946 37.929 C 167.923 36.423,168.337 35.987,171.524 31.000 C 173.388 28.084,175.303 26.353,178.160 25.001 C 180.663 23.817,180.807 23.665,183.197 19.672 C 184.189 18.015,185.692 16.107,186.537 15.430 L 188.074 14.200 200.400 14.200 L 212.726 14.200 214.263 15.428 C 215.108 16.104,216.406 17.790,217.146 19.175 C 219.017 22.673,221.080 24.629,223.684 25.373 C 225.939 26.017,240.571 26.436,241.467 25.882 C 241.723 25.724,242.023 25.821,242.135 26.098 C 242.292 26.483,242.432 26.466,242.739 26.026 C 243.079 25.538,243.238 25.534,243.800 26.000 C 244.362 26.466,244.516 26.462,244.824 25.974 C 245.105 25.531,245.189 25.605,245.194 26.300 C 245.197 26.795,245.380 27.200,245.600 27.200 C 245.820 27.200,246.000 27.020,246.000 26.800 C 246.000 26.580,246.180 26.400,246.400 26.400 C 246.620 26.400,246.803 26.805,246.806 27.300 C 246.810 27.937,246.910 28.046,247.146 27.673 C 247.848 26.566,248.009 32.999,247.995 61.691 L 247.980 91.182 246.190 92.947 C 245.206 93.918,244.400 94.850,244.400 95.018 C 244.400 95.187,243.940 95.928,243.378 96.665 C 242.816 97.402,242.446 98.152,242.557 98.331 C 242.668 98.511,242.509 99.139,242.203 99.729 C 241.898 100.318,241.704 100.800,241.773 100.800 C 241.842 100.800,241.771 101.385,241.615 102.100 C 241.017 104.835,244.635 109.362,248.176 110.309 C 251.326 111.152,308.067 111.001,310.583 110.144 C 313.026 109.312,315.783 106.647,316.363 104.557 C 316.655 103.507,316.797 93.428,316.800 73.600 C 316.803 54.753,316.952 43.670,317.215 42.723 C 317.598 41.343,321.038 37.704,321.511 38.178 C 322.128 38.795,325.739 36.136,327.200 33.989 C 327.530 33.504,328.115 32.695,328.500 32.191 C 328.885 31.686,329.200 30.988,329.200 30.638 C 329.200 29.493,331.981 26.893,334.516 25.669 C 337.894 24.037,338.886 23.071,340.540 19.795 C 343.379 14.176,343.896 14.004,358.000 14.004 C 371.792 14.004,372.542 14.217,374.598 18.708 C 376.066 21.914,377.683 23.719,380.368 25.151 C 381.691 25.856,382.881 26.608,383.014 26.823 C 383.147 27.037,383.412 27.116,383.603 26.998 C 384.024 26.738,386.261 29.834,388.261 33.446 C 390.065 36.703,392.553 38.000,396.997 38.000 L 400.020 38.000 399.987 27.402 C 399.950 15.561,400.223 16.651,397.200 16.312 C 396.251 16.206,396.186 16.036,395.931 12.962 C 395.408 6.648,394.047 5.350,387.400 4.822 L 384.600 4.600 384.480 2.300 C 384.360 -0.000,383.234 -1.208,383.175 0.900 L 383.149 1.800 382.788 0.900 L 382.426 0.000 358.000 -0.000 L 333.574 -0.000 333.212 0.900 L 332.851 1.800 332.825 0.900 C 332.766 -1.208,331.640 -0.000,331.520 2.300 L 331.400 4.600 328.600 4.822 C 321.889 5.355,320.550 6.631,320.104 12.917 C 319.845 16.580,319.833 16.591,315.577 16.933 C 309.741 17.403,308.558 18.682,308.045 25.075 C 307.727 29.043,308.187 28.630,303.533 29.130 C 295.079 30.038,295.200 29.511,295.200 65.442 L 295.200 89.200 273.000 89.200 L 250.800 89.200 250.790 53.300 C 250.775 3.412,251.163 5.587,242.163 4.857 L 239.000 4.600 238.880 2.300 C 238.760 -0.000,237.634 -1.208,237.575 0.900 L 237.549 1.800 237.188 0.900 L 236.826 0.000 200.241 0.000 L 163.656 0.000 163.482 0.900 L 163.309 1.800 163.254 0.900 C 163.128 -1.197,162.000 -0.035,162.000 2.192 M92.300 73.700 C 92.240 82.775,92.191 75.350,92.191 57.200 C 92.191 39.050,92.240 31.625,92.300 40.700 C 92.360 49.775,92.360 64.625,92.300 73.700 M249.200 57.200 C 249.200 78.800,249.063 90.000,248.800 90.000 C 248.537 90.000,248.401 79.502,248.403 59.300 C 248.407 32.083,248.550 24.400,249.056 24.400 C 249.135 24.400,249.200 39.160,249.200 57.200 M249.900 73.700 C 249.840 82.775,249.791 75.350,249.791 57.200 C 249.791 39.050,249.840 31.625,249.900 40.700 C 249.960 49.775,249.960 64.625,249.900 73.700 " stroke="none" fill="#242424" fill-rule="evenodd"></path></g></svg>